<?xml version="1.0" standalone="no"?><!DOCTYPE svg PUBLIC "-//W3C//DTD SVG 1.1//EN" "http://www.w3.org/Graphics/SVG/1.1/DTD/svg11.dtd"><svg class="icon" width="200px" height="200.00px" viewBox="0 0 1024 1024" version="1.1" xmlns="http://www.w3.org/2000/svg"><path d="M762.56 490.03H387.98V348.57c0-67.78 54.95-122.73 122.73-122.73h4.62c67.78 0 122.73 54.95 122.73 122.73v2.78c0 31.04 25.16 56.2 56.2 56.2 31.04 0 56.2-25.16 56.2-56.2v-4.74c0-129.47-104.96-234.43-234.43-234.43h-7.01c-129.47 0-234.43 104.96-234.43 234.43v143.43h-13.14c-61.12 0-110.67 49.55-110.67 110.67v200.44c0 61.12 49.55 110.67 110.67 110.67h501.12c61.12 0 110.67-49.55 110.67-110.67V600.7c-0.01-61.12-49.56-110.67-110.68-110.67z m-1.7 280.49c0 25.36-20.62 45.89-45.98 45.77l-406.18-1.86c-25.2-0.12-45.56-20.57-45.56-45.77V631.33c0-25.36 20.62-45.89 45.98-45.77l406.18 1.86c25.2 0.12 45.56 20.57 45.56 45.77v137.33z" /></svg>