<?xml version="1.0" standalone="no"?><!DOCTYPE svg PUBLIC "-//W3C//DTD SVG 1.1//EN" "http://www.w3.org/Graphics/SVG/1.1/DTD/svg11.dtd"><svg class="icon" width="200px" height="200.00px" viewBox="0 0 1024 1024" version="1.1" xmlns="http://www.w3.org/2000/svg"><path d="M646.15 113.32h-268.3c-64.82 0-117.86 53.04-117.86 117.86v592.89c0 64.82 53.04 117.86 117.86 117.86h268.3c64.82 0 117.86-53.04 117.86-117.86V231.18c0-64.82-53.04-117.86-117.86-117.86z m64.38 653.23c0 8.22-6.73 14.95-14.95 14.95H326.44c-8.22 0-14.95-6.73-14.95-14.95V288.09c0-8.22 6.73-14.95 14.95-14.95h369.14c8.22 0 14.95 6.73 14.95 14.95v478.46z" /></svg>