<?xml version="1.0" standalone="no"?><!DOCTYPE svg PUBLIC "-//W3C//DTD SVG 1.1//EN" "http://www.w3.org/Graphics/SVG/1.1/DTD/svg11.dtd"><svg class="icon" width="200px" height="200.00px" viewBox="0 0 1024 1024" version="1.1" xmlns="http://www.w3.org/2000/svg"><path d="M850.4 178.57c-0.28-0.14-0.58-0.23-0.89-0.27-51.06-6.03-116.54-20.59-152.02-32.81-59.66-20.55-112.41-48.68-145.84-72.28-0.2-0.14-0.41-0.25-0.63-0.33l-12.99-4.64-0.18-0.06a90.824 90.824 0 0 0-51.48-0.01c-0.07 0.02-0.13 0.04-0.19 0.06l-15.72 5.74c-0.21 0.08-0.41 0.18-0.59 0.3-33.62 23.18-85.76 50.43-144.54 70.32-33.68 11.4-94.29 24.75-144.02 31.01-0.19 0.02-0.38 0.07-0.57 0.13-29.22 10.26-44.6 32.07-44.6 63.37v366.51c0 43.87 29.23 77.8 29.23 77.8 0.14 0.13 0.26 0.27 0.37 0.42 31.17 45.12 82.1 96.2 139.68 150.78 54.1 51.29 144.03 109.69 144.21 109.79 34.79 19.86 87.68 21.36 130.52-2.8 0.19-0.11 94.21-66.44 137.49-106.99 34.62-32.43 83.16-73.74 134.75-143.93 0.1-0.14 33.76-36.1 35.47-85.06V239.11c0-28.9-14.72-49.18-37.46-60.54z m-74.3 434.06c-4.77 12.13-20.44 29.2-35.44 46.18-25.74 32.86-58.78 62.81-82.07 83.74-26.56 23.86-65.51 60.34-94 77.68-0.11 0.06-0.2 0.14-0.29 0.22l-3.43 3.16c-0.11 0.1-0.24 0.19-0.37 0.27-33.4 21.8-56.48 28.85-93.13 2-0.12-0.09-0.25-0.16-0.36-0.26l-1.07-0.98c-0.11-0.1-0.23-0.19-0.36-0.26-28.81-16.02-72.27-55.92-101.11-81.83-26.51-23.82-62.24-56.94-87.96-92.31-12.27-14.09-23.45-27.74-27.91-37.61-6.8-15.05-5.67-24.86-4.89-41.69 0-0.26-0.01-0.52-0.01-0.78v-261.5c0-22.33 5.95-34.37 31.56-40.25 0.14-0.03 0.27-0.08 0.41-0.1 35.48-4.47 86.16-22.07 106.21-29.88 39.81-15.51 71.87-30.28 99.94-46.38 0.14-0.08 0.27-0.16 0.42-0.22l11.21-4.09c0.05-0.02 0.09-0.03 0.14-0.05a64.844 64.844 0 0 1 36.73 0c0.04 0.01 0.08 0.03 0.13 0.04l9.27 3.31c0.16 0.06 0.31 0.14 0.45 0.23 23.96 15.71 60.44 29.74 101.89 47.32 33.15 14.06 111.51 31.65 111.72 31.7 18.97 3.98 26.28 17.72 26.28 38.35v237.1c0.09-0.04 0.14 0.01 0.11 0.22-0.04 0.36-0.08 0.72-0.11 1.08v13.21c0.42 23.84 3.08 34.49-3.96 52.38zM565.49 496.16c-3.7 2.49-5.96 6.62-5.96 11.08v152.39c0 17.79-14.42 32.21-32.21 32.21h-30.96c-17.79 0-32.21-14.42-32.21-32.21v-152.6c0-4.44-2.23-8.55-5.91-11.04-25.29-17.17-41.94-46.12-42.06-78.96-0.19-52.27 42.18-95.43 94.44-96.16 53.54-0.75 97.17 42.43 97.17 95.8 0.02 33.1-16.77 62.28-42.3 79.49z" /></svg>