<?xml version="1.0" standalone="no"?><!DOCTYPE svg PUBLIC "-//W3C//DTD SVG 1.1//EN" "http://www.w3.org/Graphics/SVG/1.1/DTD/svg11.dtd"><svg class="icon" width="200px" height="200.00px" viewBox="0 0 1024 1024" version="1.1" xmlns="http://www.w3.org/2000/svg"><path d="M965.62 252.2c-6.68-21.58-23.2-40.37-45.72-46.37-6.03-1.61-12.24-2.29-18.54-2.3-23.47-0.05-48.25 9.15-70.11 14.14-31.6 7.22-63.19 14.43-94.79 21.65l-303.69 69.36c-57.74 13.26-115.5 26.38-173.25 39.57-41.34 9.44-82.69 17.87-124.05 27.01-23.42 5.18-48.31 15.11-59.43 37.63-8.9 18.01-7.94 40.33 3.17 57.22 16.61 25.24 51.83 40.19 76.55 56.32 17.08 11.14 34.08 22.41 50.88 33.95 12.41 8.52 30.28 15.58 38.27 28.74 7.55 12.46 5.55 28.39 5.74 42.25 0.26 19.05 0.52 38.11 0.77 57.16 0.67 49.71 1.04 99.41 2.72 149.09 1.22 36.15 28.46 57.88 64.44 57.88 12.44 0 24.99-2.75 35.99-8.57 20.29-10.73 37.37-28.06 56.04-41.34 18.75-13.34 37.51-26.68 56.26-40.01 10.48-7.46 21.12-14.72 31.42-22.43 7.35-5.5 15.02-12.04 24.91-9.77 9.65 2.21 18.34 9.21 26.64 14.28 14.76 9 29.27 18.41 44.29 26.98 14.74 8.41 30.23 17.26 47.04 20.37 0.53 0.1 1.06 0.19 1.6 0.28 3.12 0.51 6.28 0.82 9.44 0.9 45.49 0.71 61.06-47.68 77.98-81.14 15.03-29.73 30.07-59.45 45.1-89.18 31.42-67.33 65.35-133.48 99.66-199.4 17.16-32.98 34.43-65.91 51.54-98.91 14.97-28.89 38.7-62.08 41.15-95.29 0.51-6.78-0.01-13.56-2.02-20.07z m-118.9 72.92c-0.19 10.97-7.74 23.18-12.84 31.18-47.77 74.9-83.87 156.51-124.25 235.46-15 29.32-28.44 58.79-40.87 89.24-4.61 11.29-9.95 23.66-18.58 32.48-18.96 19.38-37.42 4.6-55.44-6.96-15.9-10.19-31.8-20.39-47.69-30.58-12.52-8.03-25.06-16.03-37.64-23.96-11.06-6.97-20.99-16.72-33.93-20.17-15.18-4.04-31.71 1.15-43.64 10.89-17.44 14.24-25.03 43.29-3.48 57.93 2.74 1.86 5.8 3.29 8.23 5.55 8.07 7.49-0.43 15.58-6.79 20.39-14 10.59-28.82 20.44-43.6 29.91-8.84 5.66-21.43 10.34-28.44-0.5-3.01-4.65-1.93-10.62-1.9-15.87 0.08-15.02 0.07-30.04 0.07-45.07 0-18.18 0.27-36.39-0.41-54.56-0.53-14.11 0.29-25.87 12.82-34.24 21.75-14.54 51.04-22.47 74.92-33.25 28.24-12.75 56.54-25.39 84.88-37.92 57.38-25.37 114.95-50.29 172.71-74.75 9.74-4.13 19.65-8.33 27.78-15.1 8.14-6.76 14.39-16.58 14.33-27.16-0.11-17.85-18.4-31.26-36.21-32.55-17.8-1.29-34.93 6.23-51.19 13.59-91.09 41.22-182.18 82.43-273.26 123.65-11.21 5.07-22.86 10.25-35.17 10.24-19.83-0.02-35.87-13.04-51.04-24.21-16.66-12.27-34.76-22.44-52.05-33.84-14.59-9.61-9.95-29.47 4.46-36.05 13.06-5.96 28.27-5.67 42.07-9.03 14.83-3.61 29.69-7.17 44.58-10.59 37.1-8.51 74.18-17.08 111.24-25.73 74.13-17.3 148.18-34.89 222.17-52.76 37.6-9.08 75.29-17.82 112.93-26.76 16.07-4.02 46.22-17.2 60.25-2.33 3.69 3.92 5.06 8.55 4.98 13.43z" /></svg>